<svg xmlns="http://www.w3.org/2000/svg" xmlns:xlink="http://www.w3.org/1999/xlink" version="1.1" class="marks" width="629" height="304" viewBox="0 0 629 304"><rect width="629" height="304" fill="white"/><g fill="none" stroke-miterlimit="10" transform="translate(40,46)"><g class="mark-group role-frame root" role="graphics-object" aria-roledescription="group mark container"><g transform="translate(0,0)"><path class="background" aria-hidden="true" d="M0,0h0v0h0Z"/><g><g class="mark-group role-row-header row_header" role="graphics-object" aria-roledescription="group mark container"><g transform="translate(-1,0)"><path class="background" aria-hidden="true" d="M0,0h0v220h0Z"/><g><g class="mark-group role-axis" role="graphics-symbol" aria-roledescription="axis" aria-label="Y-axis titled 'Count' for a linear scale with values from 0 to 80"><g transform="translate(0.5,0.5)"><path class="background" aria-hidden="true" d="M0,0h0v0h0Z" pointer-events="none"/><g><g class="mark-rule role-axis-tick" pointer-events="none"><line transform="translate(0,220)" x2="-5" y2="0" stroke="#888" stroke-width="1" opacity="1"/><line transform="translate(0,193)" x2="-5" y2="0" stroke="#888" stroke-width="1" opacity="1"/><line transform="translate(0,165)" x2="-5" y2="0" stroke="#888" stroke-width="1" opacity="1"/><line transform="translate(0,138)" x2="-5" y2="0" stroke="#888" stroke-width="1" opacity="1"/><line transform="translate(0,110)" x2="-5" y2="0" stroke="#888" stroke-width="1" opacity="1"/><line transform="translate(0,83)" x2="-5" y2="0" stroke="#888" stroke-width="1" opacity="1"/><line transform="translate(0,55)" x2="-5" y2="0" stroke="#888" stroke-width="1" opacity="1"/><line transform="translate(0,28)" x2="-5" y2="0" stroke="#888" stroke-width="1" opacity="1"/><line transform="translate(0,0)" x2="-5" y2="0" stroke="#888" stroke-width="1" opacity="1"/></g><g class="mark-text role-axis-label" pointer-events="none"><text text-anchor="end" transform="translate(-7,223)" font-family="sans-serif" font-size="10px" fill="#000" opacity="1">0</text><text text-anchor="end" transform="translate(-7,195.5)" font-family="sans-serif" font-size="10px" fill="#000" opacity="1">10</text><text text-anchor="end" transform="translate(-7,168)" font-family="sans-serif" font-size="10px" fill="#000" opacity="1">20</text><text text-anchor="end" transform="translate(-7,140.5)" font-family="sans-serif" font-size="10px" fill="#000" opacity="1">30</text><text text-anchor="end" transform="translate(-7,113)" font-family="sans-serif" font-size="10px" fill="#000" opacity="1">40</text><text text-anchor="end" transform="translate(-7,85.5)" font-family="sans-serif" font-size="10px" fill="#000" opacity="1">50</text><text text-anchor="end" transform="translate(-7,58)" font-family="sans-serif" font-size="10px" fill="#000" opacity="1">60</text><text text-anchor="end" transform="translate(-7,30.5)" font-family="sans-serif" font-size="10px" fill="#000" opacity="1">70</text><text text-anchor="end" transform="translate(-7,3)" font-family="sans-serif" font-size="10px" fill="#000" opacity="1">80</text></g><g class="mark-rule role-axis-domain" pointer-events="none"><line transform="translate(0,220)" x2="0" y2="-220" stroke="#888" stroke-width="1" opacity="1"/></g><g class="mark-text role-axis-title" pointer-events="none"><text text-anchor="middle" transform="translate(-22.123046875,110) rotate(-90) translate(0,-2)" font-family="sans-serif" font-size="11px" font-weight="bold" fill="#000" opacity="1">Count</text></g></g><path class="foreground" aria-hidden="true" d="" pointer-events="none" display="none"/></g></g></g><path class="foreground" aria-hidden="true" d="" display="none"/></g></g><g class="mark-group role-column-header column_header" role="graphics-object" aria-roledescription="group mark container"><g transform="translate(0,-1)"><path class="background" aria-hidden="true" d="M0,0h220v0h-220Z"/><g><g class="mark-group role-title"><g transform="translate(110,-22)"><path class="background" aria-hidden="true" d="M0,0h0v0h0Z" pointer-events="none"/><g><g class="mark-text role-title-text" role="graphics-symbol" aria-roledescription="title" aria-label="Title text 'Funny'" pointer-events="none"><text text-anchor="middle" transform="translate(0,9)" font-family="sans-serif" font-size="12px" font-weight="bold" fill="#000" opacity="1">Funny</text></g></g><path class="foreground" aria-hidden="true" d="" pointer-events="none" display="none"/></g></g></g><path class="foreground" aria-hidden="true" d="" display="none"/></g><g transform="translate(242,-1)"><path class="background" aria-hidden="true" d="M0,0h220v0h-220Z"/><g><g class="mark-group role-title"><g transform="translate(110,-22)"><path class="background" aria-hidden="true" d="M0,0h0v0h0Z" pointer-events="none"/><g><g class="mark-text role-title-text" role="graphics-symbol" aria-roledescription="title" aria-label="Title text 'Sad'" pointer-events="none"><text text-anchor="middle" transform="translate(0,9)" font-family="sans-serif" font-size="12px" font-weight="bold" fill="#000" opacity="1">Sad</text></g></g><path class="foreground" aria-hidden="true" d="" pointer-events="none" display="none"/></g></g></g><path class="foreground" aria-hidden="true" d="" display="none"/></g></g><g class="mark-group role-column-footer column_footer" role="graphics-object" aria-roledescription="group mark container"><g transform="translate(0,221)"><path class="background" aria-hidden="true" d="M0,0h220v0h-220Z"/><g><g class="mark-group role-axis" role="graphics-symbol" aria-roledescription="axis" aria-label="X-axis titled 'True label' for a discrete scale with 5 values: 1, 2, 3, 4, 5"><g transform="translate(0.5,0.5)"><path class="background" aria-hidden="true" d="M0,0h0v0h0Z" pointer-events="none"/><g><g class="mark-rule role-axis-tick" pointer-events="none"><line transform="translate(21,0)" x2="0" y2="5" stroke="#888" stroke-width="1" opacity="1"/><line transform="translate(65,0)" x2="0" y2="5" stroke="#888" stroke-width="1" opacity="1"/><line transform="translate(109,0)" x2="0" y2="5" stroke="#888" stroke-width="1" opacity="1"/><line transform="translate(154,0)" x2="0" y2="5" stroke="#888" stroke-width="1" opacity="1"/><line transform="translate(198,0)" x2="0" y2="5" stroke="#888" stroke-width="1" opacity="1"/></g><g class="mark-text role-axis-label" pointer-events="none"><text text-anchor="middle" transform="translate(21.49999999999999,15)" font-family="sans-serif" font-size="10px" fill="#000" opacity="1">1</text><text text-anchor="middle" transform="translate(65.49999999999999,15)" font-family="sans-serif" font-size="10px" fill="#000" opacity="1">2</text><text text-anchor="middle" transform="translate(109.49999999999999,15)" font-family="sans-serif" font-size="10px" fill="#000" opacity="1">3</text><text text-anchor="middle" transform="translate(153.5,15)" font-family="sans-serif" font-size="10px" fill="#000" opacity="1">4</text><text text-anchor="middle" transform="translate(197.5,15)" font-family="sans-serif" font-size="10px" fill="#000" opacity="1">5</text></g><g class="mark-rule role-axis-domain" pointer-events="none"><line transform="translate(0,0)" x2="220" y2="0" stroke="#888" stroke-width="1" opacity="1"/></g><g class="mark-text role-axis-title" pointer-events="none"><text text-anchor="middle" transform="translate(110,30)" font-family="sans-serif" font-size="11px" font-weight="bold" fill="#000" opacity="1">True label</text></g></g><path class="foreground" aria-hidden="true" d="" pointer-events="none" display="none"/></g></g></g><path class="foreground" aria-hidden="true" d="" display="none"/></g><g transform="translate(242,221)"><path class="background" aria-hidden="true" d="M0,0h220v0h-220Z"/><g><g class="mark-group role-axis" role="graphics-symbol" aria-roledescription="axis" aria-label="X-axis titled 'True label' for a discrete scale with 5 values: 1, 2, 3, 4, 5"><g transform="translate(0.5,0.5)"><path class="background" aria-hidden="true" d="M0,0h0v0h0Z" pointer-events="none"/><g><g class="mark-rule role-axis-tick" pointer-events="none"><line transform="translate(21,0)" x2="0" y2="5" stroke="#888" stroke-width="1" opacity="1"/><line transform="translate(65,0)" x2="0" y2="5" stroke="#888" stroke-width="1" opacity="1"/><line transform="translate(109,0)" x2="0" y2="5" stroke="#888" stroke-width="1" opacity="1"/><line transform="translate(154,0)" x2="0" y2="5" stroke="#888" stroke-width="1" opacity="1"/><line transform="translate(198,0)" x2="0" y2="5" stroke="#888" stroke-width="1" opacity="1"/></g><g class="mark-text role-axis-label" pointer-events="none"><text text-anchor="middle" transform="translate(21.49999999999999,15)" font-family="sans-serif" font-size="10px" fill="#000" opacity="1">1</text><text text-anchor="middle" transform="translate(65.49999999999999,15)" font-family="sans-serif" font-size="10px" fill="#000" opacity="1">2</text><text text-anchor="middle" transform="translate(109.49999999999999,15)" font-family="sans-serif" font-size="10px" fill="#000" opacity="1">3</text><text text-anchor="middle" transform="translate(153.5,15)" font-family="sans-serif" font-size="10px" fill="#000" opacity="1">4</text><text text-anchor="middle" transform="translate(197.5,15)" font-family="sans-serif" font-size="10px" fill="#000" opacity="1">5</text></g><g class="mark-rule role-axis-domain" pointer-events="none"><line transform="translate(0,0)" x2="220" y2="0" stroke="#888" stroke-width="1" opacity="1"/></g><g class="mark-text role-axis-title" pointer-events="none"><text text-anchor="middle" transform="translate(110,30)" font-family="sans-serif" font-size="11px" font-weight="bold" fill="#000" opacity="1">True label</text></g></g><path class="foreground" aria-hidden="true" d="" pointer-events="none" display="none"/></g></g></g><path class="foreground" aria-hidden="true" d="" display="none"/></g></g><g class="mark-group role-scope cell" role="graphics-object" aria-roledescription="group mark container"><g transform="translate(0,0)"><path class="background" aria-hidden="true" d="M0.5,0.5h220v220h-220Z" stroke="#ddd"/><g><g class="mark-group role-axis" aria-hidden="true"><g transform="translate(0.5,0.5)"><path class="background" aria-hidden="true" d="M0,0h0v0h0Z" pointer-events="none"/><g><g class="mark-rule role-axis-grid" pointer-events="none"><line transform="translate(0,220)" x2="220" y2="0" stroke="#ddd" stroke-width="1" opacity="1"/><line transform="translate(0,193)" x2="220" y2="0" stroke="#ddd" stroke-width="1" opacity="1"/><line transform="translate(0,165)" x2="220" y2="0" stroke="#ddd" stroke-width="1" opacity="1"/><line transform="translate(0,138)" x2="220" y2="0" stroke="#ddd" stroke-width="1" opacity="1"/><line transform="translate(0,110)" x2="220" y2="0" stroke="#ddd" stroke-width="1" opacity="1"/><line transform="translate(0,83)" x2="220" y2="0" stroke="#ddd" stroke-width="1" opacity="1"/><line transform="translate(0,55)" x2="220" y2="0" stroke="#ddd" stroke-width="1" opacity="1"/><line transform="translate(0,28)" x2="220" y2="0" stroke="#ddd" stroke-width="1" opacity="1"/><line transform="translate(0,0)" x2="220" y2="0" stroke="#ddd" stroke-width="1" opacity="1"/></g></g><path class="foreground" aria-hidden="true" d="" pointer-events="none" display="none"/></g></g><g class="mark-rect role-mark child_marks" role="graphics-object" aria-roledescription="rect mark container"><path aria-label="True label: 1; Count: 7; result: Classified Correctly" role="graphics-symbol" aria-roledescription="bar" d="M2.1999999999999886,200.75h39.6v19.25h-39.6Z" fill="#5A9CB5"/><path aria-label="True label: 1; Count: 21; result: Classified Too High" role="graphics-symbol" aria-roledescription="bar" d="M2.1999999999999886,143h39.6v57.75h-39.6Z" fill="#FACE68"/><path aria-label="True label: 1; Count: 0; result: Classified Too Low" role="graphics-symbol" aria-roledescription="bar" d="M2.1999999999999886,143h39.6v0h-39.6Z" fill="#FAAC68"/><path aria-label="True label: 1; Count: 0; result: Not Classified" role="graphics-symbol" aria-roledescription="bar" d="M2.1999999999999886,143h39.6v0h-39.6Z" fill="#FA6868"/><path aria-label="True label: 2; Count: 24; result: Classified Correctly" role="graphics-symbol" aria-roledescription="bar" d="M46.19999999999999,154h39.6v66h-39.6Z" fill="#5A9CB5"/><path aria-label="True label: 2; Count: 7; result: Classified Too High" role="graphics-symbol" aria-roledescription="bar" d="M46.19999999999999,134.75h39.6v19.25h-39.6Z" fill="#FACE68"/><path aria-label="True label: 2; Count: 10; result: Classified Too Low" role="graphics-symbol" aria-roledescription="bar" d="M46.19999999999999,107.25000000000001h39.6v27.499999999999986h-39.6Z" fill="#FAAC68"/><path aria-label="True label: 2; Count: 0; result: Not Classified" role="graphics-symbol" aria-roledescription="bar" d="M46.19999999999999,107.25000000000001h39.6v0h-39.6Z" fill="#FA6868"/><path aria-label="True label: 3; Count: 3; result: Classified Correctly" role="graphics-symbol" aria-roledescription="bar" d="M90.19999999999999,211.75h39.6v8.25h-39.6Z" fill="#5A9CB5"/><path aria-label="True label: 3; Count: 0; result: Classified Too High" role="graphics-symbol" aria-roledescription="bar" d="M90.19999999999999,211.75h39.6v0h-39.6Z" fill="#FACE68"/><path aria-label="True label: 3; Count: 25; result: Classified Too Low" role="graphics-symbol" aria-roledescription="bar" d="M90.19999999999999,143h39.6v68.75h-39.6Z" fill="#FAAC68"/><path aria-label="True label: 3; Count: 0; result: Not Classified" role="graphics-symbol" aria-roledescription="bar" d="M90.19999999999999,143h39.6v0h-39.6Z" fill="#FA6868"/><path aria-label="True label: 4; Count: 0; result: Classified Correctly" role="graphics-symbol" aria-roledescription="bar" d="M134.2,220h39.6v0h-39.6Z" fill="#5A9CB5"/><path aria-label="True label: 4; Count: 0; result: Classified Too High" role="graphics-symbol" aria-roledescription="bar" d="M134.2,220h39.6v0h-39.6Z" fill="#FACE68"/><path aria-label="True label: 4; Count: 18; result: Classified Too Low" role="graphics-symbol" aria-roledescription="bar" d="M134.2,170.5h39.6v49.5h-39.6Z" fill="#FAAC68"/><path aria-label="True label: 4; Count: 0; result: Not Classified" role="graphics-symbol" aria-roledescription="bar" d="M134.2,170.5h39.6v0h-39.6Z" fill="#FA6868"/><path aria-label="True label: 5; Count: 0; result: Classified Correctly" role="graphics-symbol" aria-roledescription="bar" d="M178.2,220h39.6v0h-39.6Z" fill="#5A9CB5"/><path aria-label="True label: 5; Count: 0; result: Classified Too High" role="graphics-symbol" aria-roledescription="bar" d="M178.2,220h39.6v0h-39.6Z" fill="#FACE68"/><path aria-label="True label: 5; Count: 4; result: Classified Too Low" role="graphics-symbol" aria-roledescription="bar" d="M178.2,209h39.6v11h-39.6Z" fill="#FAAC68"/><path aria-label="True label: 5; Count: 0; result: Not Classified" role="graphics-symbol" aria-roledescription="bar" d="M178.2,209h39.6v0h-39.6Z" fill="#FA6868"/></g></g><path class="foreground" aria-hidden="true" d="" display="none"/></g><g transform="translate(242,0)"><path class="background" aria-hidden="true" d="M0.5,0.5h220v220h-220Z" stroke="#ddd"/><g><g class="mark-group role-axis" aria-hidden="true"><g transform="translate(0.5,0.5)"><path class="background" aria-hidden="true" d="M0,0h0v0h0Z" pointer-events="none"/><g><g class="mark-rule role-axis-grid" pointer-events="none"><line transform="translate(0,220)" x2="220" y2="0" stroke="#ddd" stroke-width="1" opacity="1"/><line transform="translate(0,193)" x2="220" y2="0" stroke="#ddd" stroke-width="1" opacity="1"/><line transform="translate(0,165)" x2="220" y2="0" stroke="#ddd" stroke-width="1" opacity="1"/><line transform="translate(0,138)" x2="220" y2="0" stroke="#ddd" stroke-width="1" opacity="1"/><line transform="translate(0,110)" x2="220" y2="0" stroke="#ddd" stroke-width="1" opacity="1"/><line transform="translate(0,83)" x2="220" y2="0" stroke="#ddd" stroke-width="1" opacity="1"/><line transform="translate(0,55)" x2="220" y2="0" stroke="#ddd" stroke-width="1" opacity="1"/><line transform="translate(0,28)" x2="220" y2="0" stroke="#ddd" stroke-width="1" opacity="1"/><line transform="translate(0,0)" x2="220" y2="0" stroke="#ddd" stroke-width="1" opacity="1"/></g></g><path class="foreground" aria-hidden="true" d="" pointer-events="none" display="none"/></g></g><g class="mark-rect role-mark child_marks" role="graphics-object" aria-roledescription="rect mark container"><path aria-label="True label: 1; Count: 41; result: Classified Correctly" role="graphics-symbol" aria-roledescription="bar" d="M2.1999999999999886,107.25000000000001h39.6v112.74999999999999h-39.6Z" fill="#5A9CB5"/><path aria-label="True label: 1; Count: 24; result: Classified Too High" role="graphics-symbol" aria-roledescription="bar" d="M2.1999999999999886,41.25h39.6v66.00000000000001h-39.6Z" fill="#FACE68"/><path aria-label="True label: 1; Count: 0; result: Classified Too Low" role="graphics-symbol" aria-roledescription="bar" d="M2.1999999999999886,41.25h39.6v0h-39.6Z" fill="#FAAC68"/><path aria-label="True label: 1; Count: 0; result: Not Classified" role="graphics-symbol" aria-roledescription="bar" d="M2.1999999999999886,41.25h39.6v0h-39.6Z" fill="#FA6868"/><path aria-label="True label: 2; Count: 6; result: Classified Correctly" role="graphics-symbol" aria-roledescription="bar" d="M46.19999999999999,203.5h39.6v16.5h-39.6Z" fill="#5A9CB5"/><path aria-label="True label: 2; Count: 3; result: Classified Too High" role="graphics-symbol" aria-roledescription="bar" d="M46.19999999999999,195.25h39.6v8.25h-39.6Z" fill="#FACE68"/><path aria-label="True label: 2; Count: 23; result: Classified Too Low" role="graphics-symbol" aria-roledescription="bar" d="M46.19999999999999,132h39.6v63.25h-39.6Z" fill="#FAAC68"/><path aria-label="True label: 2; Count: 0; result: Not Classified" role="graphics-symbol" aria-roledescription="bar" d="M46.19999999999999,132h39.6v0h-39.6Z" fill="#FA6868"/><path aria-label="True label: 3; Count: 0; result: Classified Correctly" role="graphics-symbol" aria-roledescription="bar" d="M90.19999999999999,220h39.6v0h-39.6Z" fill="#5A9CB5"/><path aria-label="True label: 3; Count: 0; result: Classified Too High" role="graphics-symbol" aria-roledescription="bar" d="M90.19999999999999,220h39.6v0h-39.6Z" fill="#FACE68"/><path aria-label="True label: 3; Count: 13; result: Classified Too Low" role="graphics-symbol" aria-roledescription="bar" d="M90.19999999999999,184.25h39.6v35.75h-39.6Z" fill="#FAAC68"/><path aria-label="True label: 3; Count: 0; result: Not Classified" role="graphics-symbol" aria-roledescription="bar" d="M90.19999999999999,184.25h39.6v0h-39.6Z" fill="#FA6868"/><path aria-label="True label: 4; Count: 0; result: Classified Correctly" role="graphics-symbol" aria-roledescription="bar" d="M134.2,220h39.6v0h-39.6Z" fill="#5A9CB5"/><path aria-label="True label: 4; Count: 0; result: Classified Too High" role="graphics-symbol" aria-roledescription="bar" d="M134.2,220h39.6v0h-39.6Z" fill="#FACE68"/><path aria-label="True label: 4; Count: 5; result: Classified Too Low" role="graphics-symbol" aria-roledescription="bar" d="M134.2,206.25h39.6v13.75h-39.6Z" fill="#FAAC68"/><path aria-label="True label: 4; Count: 0; result: Not Classified" role="graphics-symbol" aria-roledescription="bar" d="M134.2,206.25h39.6v0h-39.6Z" fill="#FA6868"/><path aria-label="True label: 5; Count: 0; result: Classified Correctly" role="graphics-symbol" aria-roledescription="bar" d="M178.2,220h39.6v0h-39.6Z" fill="#5A9CB5"/><path aria-label="True label: 5; Count: 0; result: Classified Too High" role="graphics-symbol" aria-roledescription="bar" d="M178.2,220h39.6v0h-39.6Z" fill="#FACE68"/><path aria-label="True label: 5; Count: 4; result: Classified Too Low" role="graphics-symbol" aria-roledescription="bar" d="M178.2,209h39.6v11h-39.6Z" fill="#FAAC68"/><path aria-label="True label: 5; Count: 0; result: Not Classified" role="graphics-symbol" aria-roledescription="bar" d="M178.2,209h39.6v0h-39.6Z" fill="#FA6868"/></g></g><path class="foreground" aria-hidden="true" d="" display="none"/></g></g><g class="mark-group role-legend" role="graphics-symbol" aria-roledescription="legend" aria-label="Symbol legend for fill color with 4 values: Classified Correctly, Classified Too High, Classified Too Low, Not Classified"><g transform="translate(481,0)"><path class="background" aria-hidden="true" d="M0,0h103v50h-103Z" pointer-events="none"/><g><g class="mark-group role-legend-entry"><g transform="translate(0,0)"><path class="background" aria-hidden="true" d="M0,0h0v0h0Z" pointer-events="none"/><g><g class="mark-group role-scope" role="graphics-object" aria-roledescription="group mark container"><g transform="translate(0,0)"><path class="background" aria-hidden="true" d="M0,0h102.1328125v11h-102.1328125Z" pointer-events="none" opacity="1"/><g><g class="mark-symbol role-legend-symbol" pointer-events="none"><path transform="translate(6,6)" d="M-5,-5h10v10h-10Z" fill="#5A9CB5" stroke-width="1.5" opacity="1"/></g><g class="mark-text role-legend-label" pointer-events="none"><text text-anchor="start" transform="translate(16,9)" font-family="sans-serif" font-size="10px" fill="#000" opacity="1">Classified Correctly</text></g></g><path class="foreground" aria-hidden="true" d="" pointer-events="none" display="none"/></g><g transform="translate(0,13)"><path class="background" aria-hidden="true" d="M0,0h102.1328125v11h-102.1328125Z" pointer-events="none" opacity="1"/><g><g class="mark-symbol role-legend-symbol" pointer-events="none"><path transform="translate(6,6)" d="M-5,-5h10v10h-10Z" fill="#FACE68" stroke-width="1.5" opacity="1"/></g><g class="mark-text role-legend-label" pointer-events="none"><text text-anchor="start" transform="translate(16,9)" font-family="sans-serif" font-size="10px" fill="#000" opacity="1">Classified Too High</text></g></g><path class="foreground" aria-hidden="true" d="" pointer-events="none" display="none"/></g><g transform="translate(0,26)"><path class="background" aria-hidden="true" d="M0,0h102.1328125v11h-102.1328125Z" pointer-events="none" opacity="1"/><g><g class="mark-symbol role-legend-symbol" pointer-events="none"><path transform="translate(6,6)" d="M-5,-5h10v10h-10Z" fill="#FAAC68" stroke-width="1.5" opacity="1"/></g><g class="mark-text role-legend-label" pointer-events="none"><text text-anchor="start" transform="translate(16,9)" font-family="sans-serif" font-size="10px" fill="#000" opacity="1">Classified Too Low</text></g></g><path class="foreground" aria-hidden="true" d="" pointer-events="none" display="none"/></g><g transform="translate(0,39)"><path class="background" aria-hidden="true" d="M0,0h102.1328125v11h-102.1328125Z" pointer-events="none" opacity="1"/><g><g class="mark-symbol role-legend-symbol" pointer-events="none"><path transform="translate(6,6)" d="M-5,-5h10v10h-10Z" fill="#FA6868" stroke-width="1.5" opacity="1"/></g><g class="mark-text role-legend-label" pointer-events="none"><text text-anchor="start" transform="translate(16,9)" font-family="sans-serif" font-size="10px" fill="#000" opacity="1">Not Classified</text></g></g><path class="foreground" aria-hidden="true" d="" pointer-events="none" display="none"/></g></g></g><path class="foreground" aria-hidden="true" d="" pointer-events="none" display="none"/></g></g></g><path class="foreground" aria-hidden="true" d="" pointer-events="none" display="none"/></g></g><g class="mark-group role-title"><g transform="translate(274.9384765625,-41)"><path class="background" aria-hidden="true" d="M0,0h0v0h0Z" pointer-events="none"/><g><g class="mark-text role-title-text" role="graphics-symbol" aria-roledescription="title" aria-label="Title text 'Predictions with model: microsoft deberta v3 small SGD without dropout cls results'" pointer-events="none"><text text-anchor="middle" transform="translate(0,10)" font-family="sans-serif" font-size="13px" font-weight="bold" fill="#000" opacity="1">Predictions with model: microsoft deberta v3 small SGD without dropout cls results</text></g></g><path class="foreground" aria-hidden="true" d="" pointer-events="none" display="none"/></g></g></g><path class="foreground" aria-hidden="true" d="" display="none"/></g></g></g></svg>